<svg fill="none" height="512" viewBox="0 0 36 36" width="512" xmlns="http://www.w3.org/2000/svg" xmlns:xlink="http://www.w3.org/1999/xlink"><clipPath id="clip0"><path d="m0 0h36v36h-36z"/></clipPath><g clip-path="url(#clip0)"><path d="m18 36c9.9411 0 18-8.0589 18-18 0-9.94113-8.0589-18-18-18-9.94113 0-18 8.05887-18 18 0 9.9411 8.05887 18 18 18z" fill="#f0f0f0"/><path d="m10.9566 11.7392h23.9238c-2.5432-6.85445-9.1411-11.7392-16.8804-11.7392-4.9706 0-9.47014 2.01509-12.72729 5.27266z" fill="#000"/><path d="m10.9566 24.2617h23.9238c-2.5432 6.8544-9.1411 11.7392-16.8804 11.7392-4.9706 0-9.47014-2.0151-12.72729-5.2727z" fill="#6da544"/><path d="m5.27207 5.27148c-7.02943 7.02942-7.02943 18.42642 0 25.45592 2.90482-2.9048 5.69853-5.6985 12.72793-12.7279z" fill="#d80027"/><path d="m7.14402 14.0879.98782 2.0657 2.23096-.5156-.99916 2.0602 1.79406 1.4227-2.23365.5034.00619 2.2896-1.78622-1.4324-1.78629 1.4324.00626-2.2896-2.23362-.5034 1.79395-1.4227-.999-2.0602 2.23081.5156z" fill="#f0f0f0"/></g></svg>